<?xml version="1.0" encoding="iso-8859-1"?>
<!-- Generator: Adobe Illustrator 19.0.0, SVG Export Plug-In . SVG Version: 6.00 Build 0)  -->
<svg version="1.1" id="Capa_1" xmlns="http://www.w3.org/2000/svg" xmlns:xlink="http://www.w3.org/1999/xlink" x="0px" y="0px"
	 viewBox="0 0 512 512" style="enable-background:new 0 0 512 512;" xml:space="preserve">
<g>
	<path style="fill:#9EA7AF;" d="M354.254,152.613v184.504c0,4.143,3.358,7.5,7.5,7.5s7.5-3.357,7.5-7.5V152.613H354.254z"/>
	<path style="fill:#9EA7AF;" d="M256.322,209.038c-2.573,0-5.026-0.498-7.295-1.369v38.695c0,4.143,3.358,7.5,7.5,7.5
		s7.5-3.357,7.5-7.5l-0.001-38.845C261.647,208.492,259.048,209.038,256.322,209.038z"/>
	<path style="fill:#9EA7AF;" d="M262.963,169.45c5.01,1.729,9.135,5.344,11.521,10.001l33.702-26.838h-5.551
		c-3.584,0-6.5-2.916-6.5-6.5v-3.078L262.963,169.45z"/>
	<path style="fill:#9EA7AF;" d="M459.26,169.399l-31.886-25.393v2.106c0,3.584-2.916,6.5-6.5,6.5h-6.771l33.554,26.72
		C450.074,174.689,454.228,171.094,459.26,169.399z"/>
	<path style="fill:#9EA7AF;" d="M465.76,209.038c-2.65,0-5.175-0.523-7.5-1.443v38.77c0,4.143,3.358,7.5,7.5,7.5s7.5-3.357,7.5-7.5
		v-38.77C470.936,208.516,468.41,209.038,465.76,209.038z"/>
	<path style="fill:#9EA7AF;" d="M305.588,279.318c2.823,0,5.512,0.576,7.96,1.615V278.8c0-4.14-3.36-7.5-7.5-7.5
		c-4.13,0-7.5,3.36-7.5,7.5v1.794C300.746,279.783,303.111,279.318,305.588,279.318z"/>
	<path style="fill:#9EA7AF;" d="M306.048,226.7c-4.13,0-7.5,3.359-7.5,7.5v22.3c0,4.13,3.37,7.5,7.5,7.5c4.14,0,7.5-3.37,7.5-7.5
		v-22.3C313.548,230.06,310.188,226.7,306.048,226.7z"/>
	<path style="fill:#9EA7AF;" d="M306.048,182.1c-4.13,0-7.5,3.36-7.5,7.5v22.3c0,4.131,3.37,7.5,7.5,7.5c4.14,0,7.5-3.369,7.5-7.5
		v-22.3C313.548,185.46,310.188,182.1,306.048,182.1z"/>
	<path style="fill:#9EA7AF;" d="M317.925,152.613l-8.647,13.076c-0.81,1.221-1.24,2.65-1.25,4.11c0,2.54,1.26,4.88,3.37,6.28
		c1.23,0.819,2.66,1.25,4.13,1.25c2.53,0,4.87-1.261,6.26-3.37l12.3-18.601c0.554-0.841,0.915-1.775,1.101-2.746L317.925,152.613
		L317.925,152.613z"/>
	<path style="fill:#9EA7AF;" d="M408.735,189.163v91.833c2.482-1.075,5.216-1.678,8.09-1.678c2.428,0,4.748,0.447,6.91,1.228
		v-91.383c0-4.204-1.683-9.8-4.002-13.308l-15.37-23.242H386.38l20.841,31.516C407.929,185.198,408.735,187.881,408.735,189.163z"/>
</g>
<path style="fill:#EF5050;" d="M295.135,146.113c0,4.143,3.358,7.5,7.5,7.5h118.239c4.142,0,7.5-3.357,7.5-7.5V123H295.135V146.113z
	"/>
<path style="fill:#A2F9F9;" d="M295.135,124.284V66.438C295.135,29.804,325.02,0,361.754,0s66.62,29.804,66.62,66.438v57.847
	H295.135V124.284z"/>
<ellipse style="fill:#33C7CA;" cx="361.75" cy="73.53" rx="29.5" ry="29.409"/>
<g style="opacity:0.1;">
	<path style="fill:#00003F;" d="M357.04,73.532c0-11.828,7.007-22.02,17.107-26.688c-3.769-1.743-7.965-2.723-12.393-2.723
		c-16.293,0-29.5,13.167-29.5,29.41s13.207,29.409,29.5,29.409c4.428,0,8.624-0.979,12.393-2.721
		C364.048,95.551,357.04,85.361,357.04,73.532z"/>
</g>
<g>
	<path style="fill:#89C947;" d="M256.322,210.038c-11.801,0-21.401-9.581-21.401-21.358s9.601-21.358,21.401-21.358
		c11.801,0,21.401,9.581,21.401,21.358C277.724,200.457,268.123,210.038,256.322,210.038z"/>
	<path style="fill:#89C947;" d="M305.588,321.035c-11.801,0-21.401-9.581-21.401-21.358s9.601-21.358,21.401-21.358
		c11.801,0,21.401,9.581,21.401,21.358C326.99,311.454,317.389,321.035,305.588,321.035z"/>
	<path style="fill:#89C947;" d="M416.825,321.035c-11.801,0-21.401-9.581-21.401-21.358s9.601-21.358,21.401-21.358
		s21.401,9.581,21.401,21.358C438.227,311.454,428.626,321.035,416.825,321.035z"/>
	<path style="fill:#89C947;" d="M465.76,210.038c-11.801,0-21.401-9.581-21.401-21.358s9.601-21.358,21.401-21.358
		c11.801,0,21.402,9.581,21.402,21.358C487.162,200.457,477.561,210.038,465.76,210.038z"/>
</g>
<path style="opacity:0.1;fill:#00003F;enable-background:new    ;" d="M318.838,146.113V66.438c0-32.599,23.671-59.77,54.768-65.363
	C369.756,0.382,365.8,0,361.754,0c-36.734,0-66.619,29.804-66.619,66.438v79.676c0,4.143,3.358,7.5,7.5,7.5h23.703
	C322.196,153.613,318.838,150.256,318.838,146.113z"/>
<g>
	<path style="fill:#33C7CA;" d="M192.743,143.851c-2.75,0-6.128-1.947-7.506-4.327l-9.82-16.955c-1.378-2.379-1.378-6.273,0-8.653
		l9.82-16.955c1.378-2.38,4.756-4.327,7.506-4.327h19.662c2.75,0,6.127,1.947,7.506,4.327l9.82,16.955
		c1.378,2.38,1.378,6.274,0,8.653l-9.82,16.955c-1.379,2.38-4.756,4.327-7.506,4.327H192.743z"/>
	<path style="fill:#33C7CA;" d="M321.929,440.805c-2.75,0-6.127-1.947-7.506-4.327l-9.82-16.955c-1.378-2.38-1.378-6.275,0-8.654
		l9.82-16.955c1.378-2.38,4.756-4.327,7.506-4.327h19.663c2.75,0,6.127,1.947,7.506,4.327l9.82,16.955
		c1.378,2.38,1.378,6.274,0,8.654l-9.82,16.955c-1.378,2.38-4.756,4.327-7.506,4.327H321.929z"/>
</g>
<path style="fill:#A2F9F9;" d="M395.829,482.063c-2.75,0-6.128-1.947-7.506-4.326l-5.988-10.338c-1.378-2.38-1.378-6.274,0-8.654
	l5.988-10.338c1.378-2.38,4.756-4.327,7.506-4.327h11.999c2.75,0,6.128,1.947,7.506,4.327l5.988,10.338
	c1.378,2.38,1.378,6.274,0,8.654l-5.988,10.338c-1.378,2.379-4.756,4.326-7.506,4.326H395.829z"/>
<g>
	<path style="fill:#9EA7AF;" d="M144.171,319.996V504.5c0,4.143,3.358,7.5,7.5,7.5s7.5-3.357,7.5-7.5V319.996H144.171z"/>
	<path style="fill:#9EA7AF;" d="M46.239,376.421c-2.573,0-5.026-0.498-7.295-1.369v38.695c0,4.142,3.358,7.5,7.5,7.5
		s7.5-3.358,7.5-7.5l-0.001-38.845C51.564,375.875,48.965,376.421,46.239,376.421z"/>
	<path style="fill:#9EA7AF;" d="M52.88,336.833c5.01,1.728,9.135,5.344,11.521,10.001l33.702-26.838h-5.551
		c-3.584,0-6.5-2.916-6.5-6.5v-3.078L52.88,336.833z"/>
	<path style="fill:#9EA7AF;" d="M249.177,336.782L217.29,311.39v2.107c0,3.584-2.916,6.5-6.5,6.5h-6.771l33.554,26.72
		C239.991,342.071,244.145,338.477,249.177,336.782z"/>
	<path style="fill:#9EA7AF;" d="M255.677,376.421c-2.65,0-5.175-0.522-7.5-1.443v38.77c0,4.142,3.358,7.5,7.5,7.5
		c4.142,0,7.5-3.358,7.5-7.5v-38.77C260.853,375.898,258.327,376.421,255.677,376.421z"/>
	<path style="fill:#9EA7AF;" d="M95.505,446.701c2.823,0,5.512,0.576,7.96,1.615v-2.134c0-4.14-3.36-7.5-7.5-7.5
		c-4.13,0-7.5,3.36-7.5,7.5v1.794C90.663,447.166,93.028,446.701,95.505,446.701z"/>
	<path style="fill:#9EA7AF;" d="M95.965,394.083c-4.13,0-7.5,3.359-7.5,7.5v22.3c0,4.13,3.37,7.5,7.5,7.5c4.14,0,7.5-3.37,7.5-7.5
		v-22.3C103.465,397.442,100.104,394.083,95.965,394.083z"/>
	<path style="fill:#9EA7AF;" d="M95.965,349.482c-4.13,0-7.5,3.36-7.5,7.5v22.3c0,4.131,3.37,7.5,7.5,7.5c4.14,0,7.5-3.369,7.5-7.5
		v-22.3C103.465,352.843,100.104,349.482,95.965,349.482z"/>
	<path style="fill:#9EA7AF;" d="M107.842,319.996l-8.647,13.076c-0.81,1.221-1.24,2.65-1.25,4.11c0,2.54,1.26,4.88,3.37,6.28
		c1.23,0.819,2.66,1.25,4.13,1.25c2.53,0,4.87-1.261,6.26-3.37l12.3-18.601c0.554-0.841,0.915-1.775,1.101-2.746h-17.264V319.996z"
		/>
	<path style="fill:#9EA7AF;" d="M198.652,356.546v91.833c2.482-1.075,5.216-1.678,8.09-1.678c2.428,0,4.748,0.447,6.91,1.228
		v-91.383c0-4.204-1.683-9.8-4.002-13.308l-15.37-23.242h-17.983l20.841,31.516C197.846,352.581,198.652,355.264,198.652,356.546z"
		/>
</g>
<path style="fill:#F7931E;" d="M85.052,313.496c0,4.143,3.358,7.5,7.5,7.5H210.79c4.142,0,7.5-3.357,7.5-7.5v-23.113H85.052V313.496
	z"/>
<path style="fill:#A2F9F9;" d="M85.052,291.667V233.82c0-36.634,29.885-66.438,66.619-66.438s66.62,29.804,66.62,66.438v57.847
	H85.052z"/>
<ellipse style="fill:#33C7CA;" cx="151.67" cy="240.91" rx="29.5" ry="29.409"/>
<g style="opacity:0.1;">
	<path style="fill:#00003F;" d="M146.958,240.915c0-11.828,7.007-22.02,17.106-26.688c-3.769-1.743-7.965-2.723-12.393-2.723
		c-16.293,0-29.5,13.167-29.5,29.41s13.207,29.409,29.5,29.409c4.428,0,8.624-0.979,12.393-2.721
		C153.965,262.934,146.958,252.744,146.958,240.915z"/>
</g>
<g>
	<path style="fill:#F7931E;" d="M46.239,377.421c-11.801,0-21.401-9.581-21.401-21.358s9.601-21.358,21.401-21.358
		c11.801,0,21.401,9.581,21.401,21.358S58.04,377.421,46.239,377.421z"/>
	<path style="fill:#F7931E;" d="M95.505,488.418c-11.801,0-21.401-9.581-21.401-21.358s9.601-21.358,21.401-21.358
		s21.401,9.581,21.401,21.358C116.907,478.837,107.306,488.418,95.505,488.418z"/>
	<path style="fill:#F7931E;" d="M206.742,488.418c-11.801,0-21.401-9.581-21.401-21.358s9.601-21.358,21.401-21.358
		s21.401,9.581,21.401,21.358C228.144,478.837,218.543,488.418,206.742,488.418z"/>
	<path style="fill:#F7931E;" d="M255.677,377.421c-11.801,0-21.401-9.581-21.401-21.358s9.601-21.358,21.401-21.358
		c11.801,0,21.402,9.581,21.402,21.358S267.478,377.421,255.677,377.421z"/>
</g>
<path style="opacity:0.1;fill:#00003F;enable-background:new    ;" d="M108.755,313.496V233.82c0-32.599,23.671-59.77,54.768-65.363
	c-3.849-0.692-7.805-1.074-11.852-1.074c-36.734,0-66.619,29.804-66.619,66.438v79.676c0,4.143,3.358,7.5,7.5,7.5h23.703
	C112.113,320.996,108.755,317.639,108.755,313.496z"/>
<g>
</g>
<g>
</g>
<g>
</g>
<g>
</g>
<g>
</g>
<g>
</g>
<g>
</g>
<g>
</g>
<g>
</g>
<g>
</g>
<g>
</g>
<g>
</g>
<g>
</g>
<g>
</g>
<g>
</g>
</svg>
